<svg width="152" height="56" viewBox="0 0 152 56" fill="none" xmlns="http://www.w3.org/2000/svg">
<path d="M24.8933 35.8283C24.0384 36.1705 23.1013 36.2519 22.2002 36.0622C21.2991 35.8724 20.4743 35.42 19.83 34.7621C19.1857 34.1042 18.7507 33.2702 18.5798 32.3653C18.4089 31.4605 18.5098 30.5252 18.8698 29.6777L21.9253 32.7332L24.3987 30.2587L21.3443 27.2032C22.2059 26.8356 23.1583 26.7367 24.077 26.9194C24.9957 27.102 25.8379 27.5577 26.4934 28.2268C27.1489 28.8959 27.5872 29.7473 27.7509 30.6695C27.9146 31.5918 27.7961 32.542 27.411 33.3958L29.6662 35.651C30.7532 34.0909 31.3351 32.2348 31.3333 30.3333C31.3166 27.3383 30.6263 24.3855 29.3136 21.6935C28.0009 19.0014 26.0994 16.6392 23.75 14.7817C24.2484 16.6097 24.538 18.4884 24.6133 20.3817C24.6548 20.9324 24.5831 21.4858 24.4027 22.0078C24.2223 22.5298 23.937 23.0094 23.5643 23.417C23.1917 23.8246 22.7395 24.1517 22.2358 24.3781C21.732 24.6044 21.1872 24.7253 20.635 24.7333C20.0694 24.7319 19.5097 24.6176 18.9888 24.3969C18.468 24.1763 17.9965 23.8538 17.602 23.4484C17.2075 23.0431 16.898 22.563 16.6915 22.0363C16.4851 21.5097 16.386 20.9471 16.4 20.3817L16.435 19.9617C13.9935 22.8654 12.6585 26.5396 12.6667 30.3333C12.667 32.0216 13.1252 33.6782 13.9926 35.1266C14.8599 36.5751 16.1039 37.7611 17.592 38.5585C19.0802 39.3558 20.7567 39.7346 22.4431 39.6544C24.1295 39.5743 25.7625 39.0382 27.1683 38.1033L24.8933 35.8283Z" fill="white"/>
<path d="M42.3509 16.088H46.6709V34.904H56.3669V39H42.3509V16.088ZM66.3566 22.808C67.5726 22.808 68.682 23.0213 69.6846 23.448C70.7086 23.8533 71.5833 24.4293 72.3086 25.176C73.0553 25.9013 73.6313 26.776 74.0366 27.8C74.4633 28.824 74.6766 29.944 74.6766 31.16C74.6766 32.376 74.4633 33.496 74.0366 34.52C73.6313 35.544 73.0553 36.4293 72.3086 37.176C71.5833 37.9013 70.7086 38.4773 69.6846 38.904C68.682 39.3093 67.5726 39.512 66.3566 39.512C65.1406 39.512 64.0206 39.3093 62.9966 38.904C61.994 38.4773 61.1193 37.9013 60.3726 37.176C59.6473 36.4293 59.0713 35.544 58.6446 34.52C58.2393 33.496 58.0366 32.376 58.0366 31.16C58.0366 29.944 58.2393 28.824 58.6446 27.8C59.0713 26.776 59.6473 25.9013 60.3726 25.176C61.1193 24.4293 61.994 23.8533 62.9966 23.448C64.0206 23.0213 65.1406 22.808 66.3566 22.808ZM66.3566 35.64C66.89 35.64 67.402 35.544 67.8926 35.352C68.4046 35.1387 68.8526 34.84 69.2366 34.456C69.6206 34.072 69.9193 33.6027 70.1326 33.048C70.3673 32.4933 70.4846 31.864 70.4846 31.16C70.4846 30.456 70.3673 29.8267 70.1326 29.272C69.9193 28.7173 69.6206 28.248 69.2366 27.864C68.8526 27.48 68.4046 27.192 67.8926 27C67.402 26.7867 66.89 26.68 66.3566 26.68C65.802 26.68 65.2793 26.7867 64.7886 27C64.298 27.192 63.8606 27.48 63.4766 27.864C63.0926 28.248 62.7833 28.7173 62.5486 29.272C62.3353 29.8267 62.2286 30.456 62.2286 31.16C62.2286 31.864 62.3353 32.4933 62.5486 33.048C62.7833 33.6027 63.0926 34.072 63.4766 34.456C63.8606 34.84 64.298 35.1387 64.7886 35.352C65.2793 35.544 65.802 35.64 66.3566 35.64ZM84.6021 46.424C83.4928 46.424 82.5008 46.2747 81.6261 45.976C80.7728 45.6987 80.0261 45.3253 79.3861 44.856C78.7461 44.408 78.2128 43.9067 77.7861 43.352C77.3595 42.7973 77.0501 42.2427 76.8581 41.688L80.8581 40.088C81.1568 40.92 81.6475 41.56 82.3301 42.008C83.0128 42.4773 83.7701 42.712 84.6021 42.712C85.9248 42.712 86.9701 42.296 87.7381 41.464C88.5061 40.6533 88.8901 39.512 88.8901 38.04V36.952H88.6341C88.1435 37.6347 87.4928 38.1787 86.6821 38.584C85.8928 38.968 84.9541 39.16 83.8661 39.16C82.9275 39.16 82.0101 38.968 81.1141 38.584C80.2395 38.2 79.4608 37.656 78.7781 36.952C78.0955 36.2267 77.5408 35.3627 77.1141 34.36C76.6875 33.3573 76.4741 32.2373 76.4741 31C76.4741 29.7627 76.6875 28.6427 77.1141 27.64C77.5408 26.616 78.0955 25.752 78.7781 25.048C79.4608 24.3227 80.2395 23.768 81.1141 23.384C82.0101 23 82.9275 22.808 83.8661 22.808C84.9541 22.808 85.8928 23.0107 86.6821 23.416C87.4928 23.8 88.1435 24.3333 88.6341 25.016H88.8901V23.32H92.8901V37.88C92.8901 39.2027 92.6875 40.3867 92.2821 41.432C91.8768 42.4987 91.3115 43.3947 90.5861 44.12C89.8608 44.8667 88.9861 45.432 87.9621 45.816C86.9595 46.2213 85.8395 46.424 84.6021 46.424ZM84.7621 35.384C85.2741 35.384 85.7755 35.288 86.2661 35.096C86.7781 34.904 87.2261 34.6267 87.6101 34.264C87.9941 33.88 88.3035 33.4213 88.5381 32.888C88.7728 32.3333 88.8901 31.704 88.8901 31C88.8901 30.296 88.7728 29.6667 88.5381 29.112C88.3035 28.5573 87.9941 28.0987 87.6101 27.736C87.2261 27.352 86.7781 27.064 86.2661 26.872C85.7755 26.68 85.2741 26.584 84.7621 26.584C84.2501 26.584 83.7488 26.68 83.2581 26.872C82.7675 27.064 82.3301 27.352 81.9461 27.736C81.5621 28.12 81.2528 28.5893 81.0181 29.144C80.7835 29.6773 80.6661 30.296 80.6661 31C80.6661 31.704 80.7835 32.3333 81.0181 32.888C81.2528 33.4213 81.5621 33.88 81.9461 34.264C82.3301 34.6267 82.7675 34.904 83.2581 35.096C83.7488 35.288 84.2501 35.384 84.7621 35.384ZM103.732 22.808C104.948 22.808 106.057 23.0213 107.06 23.448C108.084 23.8533 108.958 24.4293 109.684 25.176C110.43 25.9013 111.006 26.776 111.412 27.8C111.838 28.824 112.052 29.944 112.052 31.16C112.052 32.376 111.838 33.496 111.412 34.52C111.006 35.544 110.43 36.4293 109.684 37.176C108.958 37.9013 108.084 38.4773 107.06 38.904C106.057 39.3093 104.948 39.512 103.732 39.512C102.516 39.512 101.396 39.3093 100.372 38.904C99.369 38.4773 98.4943 37.9013 97.7476 37.176C97.0223 36.4293 96.4463 35.544 96.0196 34.52C95.6143 33.496 95.4116 32.376 95.4116 31.16C95.4116 29.944 95.6143 28.824 96.0196 27.8C96.4463 26.776 97.0223 25.9013 97.7476 25.176C98.4943 24.4293 99.369 23.8533 100.372 23.448C101.396 23.0213 102.516 22.808 103.732 22.808ZM103.732 35.64C104.265 35.64 104.777 35.544 105.268 35.352C105.78 35.1387 106.228 34.84 106.612 34.456C106.996 34.072 107.294 33.6027 107.508 33.048C107.742 32.4933 107.86 31.864 107.86 31.16C107.86 30.456 107.742 29.8267 107.508 29.272C107.294 28.7173 106.996 28.248 106.612 27.864C106.228 27.48 105.78 27.192 105.268 27C104.777 26.7867 104.265 26.68 103.732 26.68C103.177 26.68 102.654 26.7867 102.164 27C101.673 27.192 101.236 27.48 100.852 27.864C100.468 28.248 100.158 28.7173 99.9236 29.272C99.7103 29.8267 99.6036 30.456 99.6036 31.16C99.6036 31.864 99.7103 32.4933 99.9236 33.048C100.158 33.6027 100.468 34.072 100.852 34.456C101.236 34.84 101.673 35.1387 102.164 35.352C102.654 35.544 103.177 35.64 103.732 35.64Z" fill="white"/>
<path d="M8 54C37.5118 47.2084 107.228 37.7001 150 54" stroke="#FAFAFA" stroke-width="3" stroke-linecap="round"/>
</svg>
