<svg width="128" height="128" viewBox="0 0 128 128" fill="none" xmlns="http://www.w3.org/2000/svg">
<path d="M105.6 82.7153C105.6 77.3193 103.682 72.7036 99.8463 68.8681C96.0108 65.0326 91.3951 63.1149 85.9991 63.1149C80.6032 63.1149 75.9875 65.0326 72.152 68.8681C68.3165 72.7036 66.3988 77.3193 66.3988 82.7153C66.3988 88.1112 68.3165 92.7269 72.152 96.5624C75.9875 100.398 80.6032 102.316 85.9991 102.316C91.3951 102.316 96.0108 100.398 99.8463 96.5624C103.682 92.7269 105.6 88.1112 105.6 82.7153ZM128 119.116C128 120.633 127.446 121.945 126.337 123.054C125.229 124.162 123.917 124.716 122.4 124.716C120.825 124.716 119.512 124.162 118.462 123.054L103.456 108.091C98.2348 111.708 92.4159 113.516 85.9991 113.516C81.8282 113.516 77.8396 112.706 74.0333 111.088C70.227 109.469 66.9457 107.281 64.1893 104.525C61.433 101.769 59.2455 98.4875 57.6267 94.6811C56.0079 90.8748 55.1985 86.8862 55.1985 82.7153C55.1985 78.5444 56.0079 74.5557 57.6267 70.7494C59.2455 66.9431 61.433 63.6618 64.1893 60.9055C66.9457 58.1492 70.227 55.9616 74.0333 54.3428C77.8396 52.7241 81.8282 51.9147 85.9991 51.9147C90.1701 51.9147 94.1587 52.7241 97.965 54.3428C101.771 55.9616 105.053 58.1492 107.809 60.9055C110.565 63.6618 112.753 66.9431 114.372 70.7494C115.99 74.5557 116.8 78.5444 116.8 82.7153C116.8 89.1321 114.991 94.9509 111.375 100.172L126.381 115.178C127.46 116.258 128 117.57 128 119.116Z" fill="#F58220"/>
<path fill-rule="evenodd" clip-rule="evenodd" d="M0 14.8248C0 8.87122 4.91657 4 10.9259 4H98.3331C101.231 4 104.01 5.14056 106.059 7.1705C108.108 9.20043 109.259 11.9539 109.259 14.8248V52.5033C106.005 49.9045 102.322 47.8197 98.3331 46.3721V25.6495H10.9259V90.5979H47.2298C48.0216 94.4455 49.3844 98.0845 51.2261 101.423H10.9259C8.02816 101.423 5.24911 100.282 3.20006 98.2522C1.15123 96.2222 0 93.4687 0 90.5979V14.8248ZM18.2098 14.9259C18.2098 16.9374 16.5794 18.5679 14.5679 18.5679C12.5564 18.5679 10.9259 16.9374 10.9259 14.9259C10.9259 12.9144 12.5564 11.284 14.5679 11.284C16.5794 11.284 18.2098 12.9144 18.2098 14.9259ZM30.0462 14.9259C30.0462 16.9374 28.4158 18.5679 26.4043 18.5679C24.3928 18.5679 22.7623 16.9374 22.7623 14.9259C22.7623 12.9144 24.3928 11.284 26.4043 11.284C28.4158 11.284 30.0462 12.9144 30.0462 14.9259Z" fill="#0C2B42"/>
<rect x="18.2098" y="34.9567" width="45.5246" height="9.10492" rx="4.55246" fill="#0C2B42"/>
<rect x="18.2098" y="53.1666" width="27.3148" height="9.10492" rx="4.55246" fill="#0C2B42"/>
</svg>
